<svg width="360" height="254" viewBox="0 0 360 254" fill="none" xmlns="http://www.w3.org/2000/svg">
<path d="M291.825 0H72.3224V61.3229H175.169L66.8712 254H288.191V192.677H184.981L291.825 0Z" fill="black"/>
<path d="M291.825 0H72.3224V61.3229H175.169L66.8712 254H288.191V192.677H184.981L291.825 0Z" fill="url(#paint0_linear_469_4)"/>
<path d="M52.9825 144.297V95.377H0V159.385H18.2099V144.297H52.9825ZM18.2099 128.753V110.922H34.7726V128.753H18.2099Z" fill="white"/>
<path d="M61.4811 159.385H116.294V95.377H61.4811V159.385ZM79.691 110.83H98.0839V143.932H79.691V110.83Z" fill="white"/>
<path d="M143.049 142.469H154.853L161.625 159.385H179.743L173.338 142.469H179.652V95.377H124.839V159.385H143.049V142.469ZM143.049 126.924V110.922H161.442V126.924H143.049Z" fill="white"/>
<path d="M186.724 110.922H205.208V159.385H223.418V110.922H241.994V95.377H186.724V110.922Z" fill="white"/>
<path d="M285.387 159.385H303.597V95.377H248.784V159.385H266.994V141.554H285.387V159.385ZM266.994 126.009V110.922H285.387V126.009H266.994Z" fill="white"/>
<path d="M360 143.84H330.352V95.377H312.142V159.385H360V143.84Z" fill="white"/>
<defs>
<linearGradient id="paint0_linear_469_4" x1="180" y1="0" x2="180" y2="254" gradientUnits="userSpaceOnUse">
<stop stop-color="#7495CB"/>
<stop offset="1" stop-color="#2D4983"/>
</linearGradient>
</defs>
</svg>
