<svg width="16" height="15" viewBox="0 0 16 15" fill="none" xmlns="http://www.w3.org/2000/svg">
<path d="M4.50149 5.89286C3.94844 5.89286 3.50162 6.37165 3.50162 6.96429C3.50162 7.55692 3.94844 8.03571 4.50149 8.03571C5.05454 8.03571 5.50136 7.55692 5.50136 6.96429C5.50136 6.37165 5.05454 5.89286 4.50149 5.89286ZM8.00104 5.89286C7.44798 5.89286 7.00117 6.37165 7.00117 6.96429C7.00117 7.55692 7.44798 8.03571 8.00104 8.03571C8.55409 8.03571 9.00091 7.55692 9.00091 6.96429C9.00091 6.37165 8.55409 5.89286 8.00104 5.89286ZM11.5006 5.89286C10.9475 5.89286 10.5007 6.37165 10.5007 6.96429C10.5007 7.55692 10.9475 8.03571 11.5006 8.03571C12.0536 8.03571 12.5005 7.55692 12.5005 6.96429C12.5005 6.37165 12.0536 5.89286 11.5006 5.89286ZM8.00104 0C3.58286 0 0.00207374 3.11719 0.00207374 6.96429C0.00207374 8.55804 0.623868 10.0179 1.65498 11.1931C1.18942 12.5123 0.220795 13.6306 0.205172 13.644C-0.00105086 13.8783 -0.0572936 14.2199 0.061441 14.5145C0.180176 14.8092 0.452015 15 0.751977 15C2.6736 15 4.18903 14.1395 5.09829 13.4498C6.0013 13.7545 6.97617 13.9286 8.00104 13.9286C12.4192 13.9286 16 10.8114 16 6.96429C16 3.11719 12.4192 0 8.00104 0ZM8.00104 12.3214C7.16677 12.3214 6.34188 12.1842 5.55135 11.9163L4.84207 11.6752L4.23278 12.1373C3.78596 12.4754 3.17354 12.8538 2.43613 13.1083C2.66423 12.7031 2.88608 12.2478 3.05793 11.7623L3.38913 10.8214L2.74547 10.0915C2.17992 9.44531 1.50188 8.37723 1.50188 6.96429C1.50188 4.01116 4.41713 1.60714 8.00104 1.60714C11.5849 1.60714 14.5002 4.01116 14.5002 6.96429C14.5002 9.91741 11.5849 12.3214 8.00104 12.3214Z" fill="#A1A5B7"/>
</svg>
