<svg width="36" height="36" viewBox="0 0 36 36" fill="none" xmlns="http://www.w3.org/2000/svg">
<path d="M34.279 19.4315L35.9159 19.0112C36.028 17.8056 36.028 16.5915 35.9159 15.3859L35.8097 15.3565V15.2619L34.1668 14.8416C33.7485 14.7409 33.3651 14.5203 33.0593 14.2044C32.7536 13.8884 32.5376 13.4896 32.4353 13.0523C32.3331 12.6151 32.3487 12.1567 32.4804 11.7282C32.6121 11.2997 32.8547 10.918 33.1811 10.6257L34.3832 9.3984C34.1468 8.84988 33.8803 8.31187 33.5918 7.78226C33.3033 7.25266 32.9908 6.74407 32.6562 6.2544L32.568 6.27961C32.538 6.23758 32.5119 6.19345 32.4839 6.15352L30.8651 6.6474C30.3539 6.8082 29.8062 6.78603 29.3084 6.58435C28.7886 6.3224 28.374 5.87579 28.1382 5.32373C27.9023 4.77167 27.8605 4.14985 28.0201 3.56854L28.485 1.86203C27.5444 1.15849 26.5414 0.55182 25.4897 0.050443L25.4557 0.0882705L25.2774 0L24.1114 1.27988C23.8887 1.52832 23.6203 1.72681 23.3224 1.86335C23.0246 1.99989 22.7034 2.07165 22.3783 2.07429L27.8619 10.3189H27.8559C29.4755 12.8564 30.1644 15.9232 29.7952 18.9523C29.5754 20.5703 29.0537 22.127 28.26 23.5333C27.4662 24.9397 26.4159 26.1681 25.1692 27.1483C23.9225 28.1285 22.5039 28.8414 20.9944 29.246C19.4848 29.6507 17.9141 29.7392 16.3719 29.5066L16.3619 29.5192C14.3648 29.2506 12.4668 28.4493 10.8491 27.1918C9.23141 25.9343 7.94816 24.2627 7.12195 22.3366C6.29575 20.4106 5.95418 18.2945 6.12989 16.1905C6.3056 14.0865 6.99271 12.0649 8.12558 10.3189C8.19971 10.2033 8.27584 10.0877 8.35598 9.97425L13.5971 2.09111C13.2613 2.1005 12.9273 2.03596 12.6168 1.90167C12.3062 1.76737 12.0259 1.5663 11.794 1.31141L10.6259 0.0315229L10.4436 0.121897L10.4136 0.0903677C9.89265 0.342561 9.37976 0.624177 8.87889 0.931012C8.37802 1.23785 7.89117 1.5615 7.42636 1.92088L7.89919 3.61688C8.059 4.18624 8.02506 4.79619 7.80318 5.34218C7.58131 5.88818 7.18532 6.33624 6.68307 6.60957C6.1716 6.83646 5.60103 6.87061 5.06827 6.70624L3.44144 6.21657L3.35329 6.35107L3.26914 6.32585C2.60342 7.31569 2.0317 8.37153 1.56218 9.47827L2.7823 10.7014C3.0197 10.9397 3.20885 11.2258 3.33844 11.5426C3.46803 11.8594 3.5354 12.2003 3.53652 12.545C3.53764 12.8897 3.4725 13.2311 3.34497 13.5488C3.21745 13.8665 3.03016 14.1539 2.79432 14.3939C2.51138 14.6444 2.1766 14.8222 1.81662 14.913L0.181777 15.3334C0.181777 15.367 0.181777 15.4027 0.181777 15.4363L0.0755932 15.4658C-0.0302958 16.6726 -0.0249279 17.8874 0.0916214 19.0931L1.73648 19.5135C2.15953 19.6218 2.54727 19.8468 2.85953 20.1652C3.1718 20.4835 3.39724 20.8837 3.51249 21.3242C3.62775 21.7647 3.62862 22.2295 3.51503 22.6705C3.40144 23.1115 3.17751 23.5126 2.86644 23.8323L1.66435 25.068C1.90678 25.6144 2.17324 26.1524 2.46575 26.6778C2.75826 27.2033 3.06679 27.7118 3.41139 28.2015L5.0262 27.7055C5.4448 27.5765 5.88871 27.5675 6.31178 27.6794C6.73484 27.7913 7.1216 28.02 7.43184 28.3418C7.74209 28.6636 7.96449 29.0667 8.07592 29.5092C8.18735 29.9517 8.18375 30.4174 8.06548 30.858L7.60868 32.5666C8.5531 33.2636 9.55951 33.8632 10.6139 34.3571L11.7779 33.0773C12.0568 32.7718 12.4035 32.5435 12.7869 32.4128C13.1704 32.282 13.5788 32.2529 13.9756 32.3281C14.3724 32.4032 14.7453 32.5802 15.061 32.8433C15.3767 33.1064 15.6254 33.4475 15.7849 33.8359C15.8301 33.9515 15.8675 34.0701 15.8971 34.1911L16.2978 35.9081H16.3158V35.9228C17.073 35.9963 17.834 36.0173 18.5938 35.9859C18.9824 35.9754 19.3671 35.9544 19.7538 35.9144H19.7718L20.1725 34.189C20.2143 34.0013 20.2768 33.8193 20.3588 33.6468C20.3709 33.6237 20.3829 33.5985 20.3949 33.5774L20.427 33.5165C20.6193 33.1776 20.8835 32.8898 21.199 32.6755C21.5146 32.4611 21.873 32.3259 22.2464 32.2803C22.6198 32.2348 22.9983 32.2802 23.3523 32.4129C23.7063 32.5456 24.0264 32.7622 24.2877 33.0457L25.4557 34.3067C25.9786 34.0566 26.4935 33.7813 26.9964 33.466C27.4992 33.1508 27.9861 32.8356 28.4549 32.4846L27.9921 30.7865C27.8727 30.3471 27.8675 29.8822 27.977 29.44C28.0866 28.9979 28.3068 28.5944 28.615 28.2716C28.9232 27.9487 29.3081 27.7182 29.7298 27.6039C30.1515 27.4896 30.5946 27.4957 31.0133 27.6215L32.6402 28.109C33.3119 27.1228 33.891 26.0706 34.3692 24.9671L33.1571 23.7356C32.8496 23.4161 32.6287 23.0167 32.5168 22.5782C32.4048 22.1397 32.406 21.6778 32.5202 21.24C32.6343 20.8021 32.8573 20.4039 33.1664 20.0861C33.4754 19.7684 33.8594 19.5424 34.279 19.4315Z" fill="white"/>
<path d="M25.4673 11.9262L23.0037 7.9863L21.325 5.30078L18.0039 0L14.6733 5.3242L13.0041 7.99269L10.7124 11.6536L10.5329 11.9262C9.68005 13.3318 9.16374 14.9573 9.033 16.6481C8.90225 18.3389 9.16142 20.039 9.78588 21.5866C10.4103 23.1343 11.3793 24.4781 12.6008 25.4905C13.8222 26.5029 15.2555 27.1501 16.7645 27.3707C17.9321 27.559 19.1215 27.4886 20.2647 27.1633C21.4078 26.838 22.4821 26.2643 23.426 25.4751C24.3699 24.6858 25.1648 23.6966 25.7651 22.5641C26.3655 21.4316 26.7595 20.178 26.9245 18.8754C27.2074 16.4387 26.6898 13.9703 25.4673 11.9262ZM14.6828 9.09161C9.73267 19.3141 16.3634 25.1941 16.5162 25.3283C5.57891 20.5621 14.5071 9.31736 14.6828 9.10013V9.09161Z" fill="url(#paint0_linear_22_1193)"/>
<defs>
<linearGradient id="paint0_linear_22_1193" x1="18" y1="0" x2="18" y2="27.4737" gradientUnits="userSpaceOnUse">
<stop stop-color="#7B9CD1"/>
<stop offset="1" stop-color="#2A4680"/>
</linearGradient>
</defs>
</svg>
