<svg width="300" height="80" viewBox="0 0 300 80" fill="none" xmlns="http://www.w3.org/2000/svg">
<path d="M112.009 36.4792H124.152V39.4471H105.625V38.5167L117.481 24.3334H105.728V21.3656H123.992V22.1052L112.009 36.4792Z" fill="white"/>
<path d="M143.173 34.8326H133.803L131.26 39.4471H127.687L136.939 21.3703H140.39L149.877 39.4471H145.716L143.173 34.8326ZM142.12 32.3718L138.547 25.929L134.941 32.3718H142.12Z" fill="white"/>
<path d="M158.616 32.0974V39.4472H154.723V21.3704H166.053C167.249 21.3461 168.444 21.4254 169.626 21.6076C170.431 21.7398 171.204 22.019 171.906 22.431C172.624 22.8801 173.195 23.5267 173.547 24.2917C173.879 25.062 174.049 25.8916 174.045 26.7292C174.045 29.6846 172.182 31.4089 168.456 31.902L174.163 39.4286H169.932L164.29 32.0602L158.616 32.0974ZM158.616 29.1016H165.583C166.302 29.1134 167.021 29.087 167.736 29.0225C168.153 28.9697 168.561 28.8617 168.949 28.7016C169.336 28.5438 169.663 28.2699 169.884 27.9185C170.105 27.5672 170.209 27.1561 170.181 26.7432C170.214 26.3288 170.112 25.9147 169.891 25.5616C169.669 25.2084 169.339 24.9346 168.949 24.7801C168.576 24.6016 168.176 24.4853 167.764 24.4359C167.039 24.3687 166.311 24.3423 165.583 24.3568H158.616V29.1016Z" fill="white"/>
<path d="M195.873 29.9854C198.38 30.7421 199.634 32.164 199.634 34.2511C199.663 34.9991 199.507 35.7428 199.18 36.4175C198.852 37.0921 198.362 37.6771 197.753 38.1214C197.09 38.6084 196.333 38.9566 195.53 39.1448C194.492 39.3657 193.432 39.4672 192.37 39.4471H179.861V21.3703H192.211C193.242 21.3441 194.274 21.4331 195.285 21.6355C196.006 21.7933 196.685 22.0992 197.278 22.5333C197.841 22.9545 198.29 23.5062 198.586 24.1398C198.882 24.7734 199.016 25.4694 198.976 26.1663C198.976 27.9495 197.941 29.2225 195.873 29.9854ZM183.753 28.5527H191.656C192.869 28.5527 193.724 28.4038 194.232 28.0875C194.51 27.9145 194.735 27.6708 194.885 27.3819C195.035 27.0929 195.103 26.7695 195.083 26.4454C195.111 26.1262 195.051 25.8053 194.909 25.5176C194.766 25.2298 194.547 24.986 194.274 24.8126C193.738 24.487 192.864 24.3242 191.656 24.3242H183.753V28.5527ZM183.753 36.4607H191.393C192.815 36.4607 193.85 36.2839 194.495 35.9304C194.858 35.7561 195.16 35.4791 195.364 35.1346C195.567 34.79 195.662 34.3935 195.638 33.9953C195.661 33.5935 195.566 33.1937 195.363 32.8449C195.16 32.4962 194.858 32.2137 194.495 32.0322C193.853 31.6973 192.819 31.5298 191.393 31.5298H183.753V36.4607Z" fill="white"/>
<path d="M223.845 32.9021C223.845 34.8093 223.478 36.2374 222.735 37.1957C221.366 38.9075 218.517 39.7634 214.189 39.7634C211.054 39.7634 208.663 39.2983 207.015 38.3679C206.13 37.8811 205.446 37.1024 205.082 36.1676C204.689 35.1176 204.501 34.0031 204.528 32.8835V21.3703H208.42V31.7856C208.392 32.5664 208.462 33.3476 208.627 34.1115C208.754 34.591 209.019 35.0239 209.389 35.3582C210.381 36.256 212.04 36.7119 214.362 36.7119C216.685 36.7119 218.344 36.2467 219.336 35.3582C219.706 35.023 219.972 34.5906 220.103 34.1115C220.263 33.3469 220.331 32.5661 220.305 31.7856V21.3703H223.845V32.9021Z" fill="white"/>
<path d="M234.136 36.4793H247.957V39.4471H230.248V21.3703H234.136V36.4793Z" fill="white"/>
<path d="M262.145 21.0493C265.593 21.0493 268.305 21.8974 270.283 23.5938C271.304 24.4358 272.119 25.4963 272.667 26.6953C273.214 27.8943 273.479 29.2005 273.442 30.5156C273.442 32.2431 272.913 33.9301 271.924 35.3535C269.949 38.2903 266.699 39.7572 262.173 39.7541C258.779 39.7541 256.087 38.9059 254.097 37.2095C253.052 36.3051 252.222 35.1837 251.666 33.9254C251.072 32.5534 250.833 31.0564 250.971 29.57C251.109 28.0835 251.619 26.6546 252.456 25.4126C254.346 22.5595 257.576 21.1051 262.145 21.0493ZM262.173 24.0962C260.404 24.0333 258.667 24.5772 257.256 25.6359C256.508 26.1886 255.905 26.9101 255.496 27.7403C255.087 28.5705 254.884 29.4853 254.905 30.4086C254.883 31.3282 255.085 32.2395 255.494 33.0654C255.904 33.8913 256.508 34.6075 257.256 35.1535C258.702 36.1575 260.426 36.6962 262.192 36.6962C263.959 36.6962 265.682 36.1575 267.128 35.1535C267.9 34.5674 268.514 33.8021 268.915 32.9253C269.489 31.6886 269.626 30.2962 269.302 28.9734C268.977 27.6506 268.212 26.4747 267.128 25.6359C265.696 24.5911 263.952 24.0493 262.173 24.0962Z" fill="white"/>
<path d="M296.91 37.0095C297.948 37.9423 298.893 38.972 299.731 40.0844L297.155 42.4102C296.281 41.1398 295.271 39.9669 294.141 38.9121C292.379 39.5017 290.529 39.7896 288.669 39.7634C285.312 39.7634 282.639 38.9152 280.649 37.2189C279.605 36.3146 278.777 35.1931 278.223 33.9347C277.735 32.8222 277.485 31.6215 277.49 30.4086C277.474 28.6406 278.005 26.9101 279.013 25.4498C280.965 22.5192 284.214 21.0524 288.758 21.0493C292.153 21.0493 294.846 21.8974 296.84 23.5938C297.877 24.4931 298.704 25.604 299.266 26.85C299.753 27.9727 300.002 29.1822 299.999 30.404C300.02 31.664 299.753 32.9125 299.218 34.0562C298.683 35.1999 297.894 36.2094 296.91 37.0095ZM294.249 34.4883C294.809 33.9577 295.253 33.3198 295.554 32.6135C295.856 31.9072 296.008 31.1474 296.003 30.3807C296.021 29.4617 295.818 28.5517 295.409 27.7263C295 26.901 294.398 26.1843 293.652 25.6359C292.206 24.6319 290.483 24.0932 288.716 24.0932C286.95 24.0932 285.226 24.6319 283.78 25.6359C283.032 26.1886 282.429 26.9101 282.02 27.7403C281.611 28.5705 281.408 29.4853 281.429 30.4086C281.407 31.3282 281.609 32.2395 282.018 33.0654C282.428 33.8913 283.032 34.6075 283.78 35.1535C285.2 36.2149 286.947 36.7587 288.725 36.6932C289.764 36.6784 290.797 36.5346 291.8 36.2652C291.627 36.186 291.468 36.0791 291.33 35.9489C290.692 35.1826 289.987 34.4728 289.224 33.8277L290.366 32.3438C291.732 32.924 293.033 33.6427 294.249 34.4883Z" fill="white"/>
<path d="M107.322 55.5516V57.5984H113.269V58.8265H105.714V51.3511H113.123V52.5652H107.322V54.3422H111.308V55.5377L107.322 55.5516Z" fill="white"/>
<path d="M126.258 53.7095V58.8265H124.791V51.3511H126.244L131.683 56.361V51.3511H133.145V58.8265H131.838L126.258 53.7095Z" fill="white"/>
<path d="M152.213 56.1424H149.547V55.1004H153.506V57.952C152.257 58.6206 150.859 58.9678 149.439 58.9614C148.306 59.0098 147.184 58.7109 146.228 58.1055C145.731 57.7755 145.327 57.3257 145.054 56.7983C144.781 56.2709 144.648 55.6834 144.668 55.0911C144.649 54.5388 144.765 53.9902 145.005 53.4915C145.246 52.9928 145.604 52.5587 146.05 52.2256C147.074 51.5104 148.31 51.155 149.562 51.2162C150.005 51.2157 150.447 51.2546 150.883 51.3325C151.363 51.4283 151.834 51.5621 152.293 51.7325C152.554 51.8256 152.799 51.9556 153.022 52.1186L152.514 53.3002C152.041 53.0125 151.526 52.8005 150.986 52.6722C150.511 52.5507 150.024 52.4867 149.533 52.4815C148.745 52.4513 147.969 52.6821 147.329 53.1374C147.01 53.3583 146.751 53.6543 146.576 53.9985C146.402 54.3428 146.316 54.7246 146.327 55.1097C146.319 55.4834 146.404 55.8533 146.574 56.1867C146.745 56.5202 146.996 56.8069 147.305 57.0216C147.992 57.4962 148.819 57.7303 149.656 57.6868C150.115 57.6867 150.574 57.6399 151.024 57.5473C151.444 57.4614 151.853 57.3319 152.246 57.1612L152.213 56.1424Z" fill="white"/>
<path d="M165.541 51.3511H167.149V58.8265H165.541V51.3511Z" fill="white"/>
<path d="M180.721 53.7095V58.8265H179.254V51.3511H180.707L186.141 56.361V51.3511H187.594V58.8265H186.287L180.721 53.7095Z" fill="white"/>
<path d="M201.321 55.5516V57.5984H207.268V58.8265H199.714V51.3511H207.123V52.5652H201.321V54.3422H205.308V55.5377L201.321 55.5516Z" fill="white"/>
<path d="M220.403 55.5516V57.5984H226.346V58.8265H218.791V51.3511H226.2V52.5652H220.403V54.3422H224.385V55.5377L220.403 55.5516Z" fill="white"/>
<path d="M239.481 55.7795V58.8264H237.868V51.351H242.569C243.063 51.3419 243.557 51.3745 244.046 51.4486C244.377 51.5038 244.696 51.6189 244.986 51.7882C245.28 51.9775 245.512 52.2475 245.653 52.5651C245.793 52.8834 245.864 53.2274 245.86 53.5745C245.86 54.7995 245.089 55.5128 243.547 55.7144L245.898 58.8264H244.144L241.822 55.7795H239.481ZM239.481 54.5421H242.363C242.781 54.5421 243.077 54.5421 243.251 54.5095C243.424 54.486 243.593 54.4407 243.754 54.3746C243.907 54.2994 244.035 54.1836 244.125 54.0402C244.214 53.8968 244.262 53.7315 244.262 53.5629C244.262 53.3943 244.214 53.229 244.125 53.0856C244.035 52.9422 243.907 52.8264 243.754 52.7512C243.605 52.6827 243.447 52.6356 243.284 52.6116C242.984 52.5838 242.683 52.573 242.381 52.5791H239.5L239.481 54.5421Z" fill="white"/>
<path d="M257.552 51.3511H259.165V58.8265H257.552V51.3511Z" fill="white"/>
<path d="M272.732 53.7095V58.8265H271.275V51.3511H272.727L278.162 56.361V51.3511H279.629V58.8265H278.327L272.732 53.7095Z" fill="white"/>
<path d="M298.692 56.1423H296.026V55.1004H299.985V57.9519C298.736 58.6206 297.338 58.9677 295.918 58.9613C294.784 59.0103 293.663 58.7114 292.707 58.1054C292.21 57.7755 291.806 57.3256 291.533 56.7982C291.259 56.2708 291.127 55.6833 291.147 55.091C291.128 54.5388 291.244 53.9902 291.484 53.4915C291.725 52.9928 292.083 52.5586 292.529 52.2256C293.551 51.511 294.786 51.1556 296.036 51.2161C296.479 51.2152 296.921 51.2541 297.357 51.3324C297.837 51.4284 298.309 51.5622 298.767 51.7325C299.022 51.8209 299.262 51.9446 299.482 52.0999L298.969 53.2815C298.498 52.9938 297.984 52.7819 297.446 52.6535C296.971 52.5325 296.484 52.4685 295.994 52.4628C295.205 52.4326 294.429 52.6634 293.789 53.1187C293.471 53.3409 293.213 53.6369 293.037 53.9808C292.862 54.3247 292.774 54.7059 292.783 55.091C292.775 55.465 292.861 55.8351 293.032 56.1685C293.204 56.5019 293.455 56.7885 293.765 57.0029C294.445 57.4784 295.265 57.7173 296.097 57.6821C296.557 57.6822 297.015 57.6354 297.465 57.5425C297.886 57.4559 298.298 57.3265 298.692 57.1564V56.1423Z" fill="white"/>
<path d="M80.4357 43.3267L84.2765 42.3964C84.5398 39.7279 84.5398 37.0405 84.2765 34.372L84.0274 34.3069V34.0976L80.1724 33.1672C79.1908 32.9444 78.2911 32.4561 77.5737 31.7568C76.8563 31.0575 76.3493 30.1747 76.1095 29.2068C75.8696 28.239 75.9062 27.2243 76.2152 26.2759C76.5242 25.3275 77.0934 24.4827 77.8594 23.8357L80.6801 21.1191C80.1254 19.905 79.5001 18.7141 78.8232 17.5419C78.1462 16.3696 77.4128 15.2439 76.6277 14.16L76.4209 14.2159C76.3504 14.1228 76.2892 14.0251 76.2234 13.9368L72.4249 15.0299C71.2254 15.3859 69.9403 15.3368 68.7721 14.8904C67.5523 14.3106 66.5795 13.322 66.0261 12.1001C65.4728 10.8781 65.3747 9.50177 65.7492 8.21507L66.8399 4.43783C64.633 2.8806 62.2793 1.53776 59.8117 0.427998L59.7317 0.511726L59.3133 0.316345L56.5773 3.14928C56.0548 3.69917 55.425 4.13853 54.7261 4.44075C54.0271 4.74298 53.2735 4.90181 52.5108 4.90765L65.3778 23.1566H65.3637C69.1642 28.7731 70.7808 35.5614 69.9145 42.2661C69.3987 45.8474 68.1745 49.293 66.3119 52.4059C64.4494 55.5187 61.9849 58.2377 59.0596 60.4074C56.1342 62.5771 52.8053 64.1549 49.2632 65.0505C45.7211 65.9462 42.0354 66.1423 38.4167 65.6274L38.3932 65.6553C33.707 65.0607 29.2532 63.287 25.4574 60.5036C21.6615 57.7203 18.6504 54.0202 16.7117 49.7571C14.773 45.4939 13.9715 40.81 14.3838 36.153C14.7961 31.4959 16.4084 27.0213 19.0667 23.1566C19.2406 22.9007 19.4192 22.6449 19.6073 22.3937L31.9055 4.94487C31.1176 4.96566 30.334 4.82281 29.6052 4.52556C28.8765 4.22831 28.2188 3.78325 27.6745 3.21907L24.9337 0.386119L24.5059 0.586156L24.4354 0.516368C23.2131 1.07458 22.0096 1.69792 20.8343 2.37708C19.659 3.05624 18.5166 3.77263 17.426 4.56808L18.5354 8.32207C18.9104 9.58233 18.8308 10.9324 18.3102 12.1409C17.7895 13.3495 16.8604 14.3412 15.6818 14.9462C14.4817 15.4484 13.1428 15.524 11.8927 15.1602L8.07534 14.0763L7.86849 14.374L7.67104 14.3182C6.10892 16.5091 4.76738 18.8462 3.66564 21.2959L6.52866 24.0032C7.08572 24.5308 7.52956 25.164 7.83364 25.8652C8.13773 26.5663 8.29581 27.3209 8.29845 28.0839C8.30108 28.8468 8.14821 29.6025 7.84897 30.3057C7.54974 31.0089 7.11027 31.6451 6.55686 32.1764C5.89296 32.7309 5.10738 33.1243 4.26269 33.3254L0.42654 34.2557C0.42654 34.3302 0.42654 34.4093 0.42654 34.4837L0.177379 34.5488C-0.071089 37.2201 -0.0584933 39.9089 0.21499 42.5778L4.07465 43.5081C5.06732 43.7479 5.97716 44.2459 6.70989 44.9506C7.44263 45.6553 7.97162 46.5411 8.24206 47.5161C8.5125 48.4912 8.51456 49.52 8.24802 50.4961C7.98147 51.4722 7.45602 52.36 6.72611 53.0676L3.90541 55.8028C4.47425 57.0123 5.0995 58.2031 5.78587 59.3661C6.47224 60.529 7.19622 61.6547 8.00482 62.7386L11.794 61.6408C12.7762 61.3552 13.8179 61.3352 14.8106 61.5829C15.8033 61.8306 16.7108 62.3368 17.4388 63.0491C18.1668 63.7614 18.6887 64.6536 18.9501 65.6331C19.2116 66.6125 19.2031 67.6433 18.9256 68.6184L17.8538 72.4004C20.0698 73.9431 22.4314 75.2704 24.9055 76.3636L27.6369 73.5307C28.2913 72.8546 29.1047 72.3493 30.0045 72.0599C30.9044 71.7705 31.8626 71.7061 32.7937 71.8724C33.7248 72.0387 34.5998 72.4306 35.3406 73.0129C36.0814 73.5953 36.665 74.3501 37.0392 75.21C37.1452 75.4657 37.2332 75.7284 37.3025 75.9962L38.2427 79.7967H38.285V79.8292C40.0617 79.9917 41.8473 80.0383 43.6302 79.9688C44.5423 79.9455 45.4449 79.899 46.3522 79.8106H46.3945L47.3348 75.9915C47.4328 75.576 47.5795 75.1732 47.772 74.7914C47.8002 74.7402 47.8284 74.6844 47.8566 74.6379L47.9318 74.5029C48.3831 73.7529 49.003 73.1159 49.7435 72.6414C50.4839 72.1668 51.3249 71.8676 52.2012 71.7668C53.0774 71.666 53.9654 71.7664 54.7961 72.0602C55.6268 72.354 56.3778 72.8333 56.991 73.4609L59.7317 76.252C60.9587 75.6984 62.1669 75.0891 63.3469 74.3913C64.5269 73.6935 65.6693 72.9958 66.7694 72.2189L65.6834 68.4603C65.4033 67.4877 65.3911 66.4588 65.6481 65.48C65.9051 64.5012 66.422 63.6082 67.1451 62.8936C67.8683 62.179 68.7714 61.6688 69.7609 61.4158C70.7504 61.1628 71.7903 61.1762 72.7728 61.4547L76.5901 62.5339C78.1664 60.3509 79.5251 58.0219 80.6472 55.5795L77.803 52.8536C77.0816 52.1464 76.5631 51.2622 76.3005 50.2916C76.0379 49.321 76.0407 48.2988 76.3085 47.3296C76.5764 46.3604 77.0996 45.479 77.8248 44.7757C78.55 44.0724 79.451 43.5723 80.4357 43.3267Z" fill="white"/>
<path d="M60.6156 26.05L54.5511 17.4442L50.4187 11.5783L42.2434 0L34.0446 11.6295L29.9358 17.4581L24.2944 25.4545L23.8525 26.05C21.7531 29.1202 20.4822 32.6706 20.1603 36.3638C19.8385 40.057 20.4765 43.7703 22.0136 47.1508C23.5508 50.5313 25.9361 53.4667 28.9429 55.6779C31.9496 57.8892 35.4779 59.3029 39.1924 59.7847C42.0665 60.1962 44.9946 60.0422 47.8085 59.3317C50.6225 58.6212 53.267 57.3681 55.5905 55.6442C57.914 53.9203 59.8708 51.7596 61.3486 49.2859C62.8265 46.8121 63.7963 44.0741 64.2026 41.2287C64.8989 35.9065 63.6247 30.5148 60.6156 26.05ZM34.0681 19.8585C21.8827 42.187 38.2051 55.0306 38.5812 55.3236C11.6576 44.9129 33.6356 20.3515 34.0681 19.8771V19.8585Z" fill="white"/>
</svg>
